<svg width="32" height="32" viewBox="0 0 32 32" fill="none" xmlns="http://www.w3.org/2000/svg">
  <!-- Background -->
  <rect width="32" height="32" rx="4" fill="#3B82F6"/>

  <!-- StepWise Logo - simplified for favicon -->
  <!-- Stylized S -->
  <path d="M8 8 C8 6, 10 6, 12 8 C14 10, 14 12, 12 14 C10 16, 8 16, 8 18 C8 20, 10 20, 12 18" stroke="white" stroke-width="2" fill="none" stroke-linecap="round"/>

  <!-- Step dots -->
  <circle cx="8" cy="8" r="1" fill="white"/>
  <circle cx="12" cy="8" r="1" fill="white"/>
  <circle cx="12" cy="14" r="1" fill="white"/>
  <circle cx="8" cy="14" r="1" fill="white"/>
  <circle cx="8" cy="18" r="1" fill="white"/>
  <circle cx="12" cy="18" r="1" fill="white"/>

  <!-- Mini bars -->
  <rect x="16" y="7" width="1" height="6" fill="#10B981"/>
  <rect x="18" y="9" width="1" height="4" fill="#F59E0B"/>
  <rect x="20" y="6" width="1" height="8" fill="#EF4444"/>
  <rect x="22" y="8" width="1" height="5" fill="#8B5CF6"/>
  <rect x="24" y="10" width="1" height="3" fill="#06B6D4"/>
</svg>