<svg width="64" height="64" viewBox="0 0 64 64" fill="none" xmlns="http://www.w3.org/2000/svg">
  <!-- Background circle for favicon -->
  <circle cx="32" cy="32" r="32" fill="#3B82F6"/>
  <circle cx="32" cy="32" r="28" fill="white"/>

  <!-- StepWise Logo -->
  <!-- Stylized S with step elements -->
  <path d="M20 20 C20 16, 24 16, 28 20 C32 24, 32 28, 28 32 C24 36, 20 36, 20 40 C20 44, 24 44, 28 40" stroke="#3B82F6" stroke-width="3" fill="none" stroke-linecap="round"/>

  <!-- Step indicators -->
  <circle cx="20" cy="20" r="2" fill="#3B82F6"/>
  <circle cx="28" cy="20" r="2" fill="#3B82F6"/>
  <circle cx="28" cy="32" r="2" fill="#3B82F6"/>
  <circle cx="20" cy="32" r="2" fill="#3B82F6"/>
  <circle cx="20" cy="40" r="2" fill="#3B82F6"/>
  <circle cx="28" cy="40" r="2" fill="#3B82F6"/>

  <!-- Algorithm visualization bars -->
  <rect x="38" y="18" width="3" height="12" fill="#10B981" rx="1"/>
  <rect x="42" y="22" width="3" height="8" fill="#F59E0B" rx="1"/>
  <rect x="46" y="16" width="3" height="16" fill="#EF4444" rx="1"/>
  <rect x="50" y="20" width="3" height="10" fill="#8B5CF6" rx="1"/>
  <rect x="54" y="24" width="3" height="6" fill="#06B6D4" rx="1"/>
</svg>